<?xml version="1.0" encoding="UTF-8" standalone="no"?>
<!DOCTYPE svg PUBLIC "-//W3C//DTD SVG 1.1//EN"
 "http://www.w3.org/Graphics/SVG/1.1/DTD/svg11.dtd">
<!-- Generated by graphviz version 2.47.1 (20210417.1919)
 -->
<!-- Title: DFA Pages: 1 -->
<svg width="95pt" height="313pt"
 viewBox="0.00 0.00 95.00 313.00" xmlns="http://www.w3.org/2000/svg" xmlns:xlink="http://www.w3.org/1999/xlink">
<g id="graph0" class="graph" transform="scale(1 1) rotate(0) translate(4 309)">
<title>DFA</title>
<polygon fill="white" stroke="transparent" points="-4,4 -4,-309 91,-309 91,4 -4,4"/>
<!-- 3 -->
<g id="node1" class="node">
<title>3</title>
<ellipse fill="none" stroke="black" cx="31" cy="-22" rx="27" ry="18"/>
<ellipse fill="none" stroke="black" cx="31" cy="-22" rx="31" ry="22"/>
<text text-anchor="middle" x="31" y="-18.3" font-family="Times,serif" font-size="14.00">3</text>
</g>
<!-- 3&#45;&gt;3 -->
<g id="edge1" class="edge">
<title>3&#45;&gt;3</title>
<path fill="none" stroke="black" d="M59.69,-30.59C70.78,-30.97 80,-28.11 80,-22 80,-17.9 75.84,-15.26 69.74,-14.08"/>
<polygon fill="black" stroke="black" points="69.9,-10.58 59.69,-13.41 69.43,-17.57 69.9,-10.58"/>
<text text-anchor="middle" x="83.5" y="-18.3" font-family="Times,serif" font-size="14.00">d</text>
</g>
<!-- 2 -->
<g id="node2" class="node">
<title>2</title>
<ellipse fill="none" stroke="black" cx="31" cy="-113" rx="27" ry="18"/>
<text text-anchor="middle" x="31" y="-109.3" font-family="Times,serif" font-size="14.00">2</text>
</g>
<!-- 2&#45;&gt;3 -->
<g id="edge2" class="edge">
<title>2&#45;&gt;3</title>
<path fill="none" stroke="black" d="M31,-94.84C31,-83.44 31,-68.13 31,-54.58"/>
<polygon fill="black" stroke="black" points="34.5,-54.19 31,-44.19 27.5,-54.19 34.5,-54.19"/>
<text text-anchor="middle" x="34.5" y="-65.8" font-family="Times,serif" font-size="14.00">d</text>
</g>
<!-- 1 -->
<g id="node3" class="node">
<title>1</title>
<ellipse fill="none" stroke="black" cx="31" cy="-200" rx="27" ry="18"/>
<text text-anchor="middle" x="31" y="-196.3" font-family="Times,serif" font-size="14.00">1</text>
</g>
<!-- 1&#45;&gt;2 -->
<g id="edge3" class="edge">
<title>1&#45;&gt;2</title>
<path fill="none" stroke="black" d="M24.11,-182.56C22.04,-176.79 20.03,-170.21 19,-164 17.71,-156.25 18.72,-147.92 20.61,-140.33"/>
<polygon fill="black" stroke="black" points="24.02,-141.13 23.59,-130.55 17.33,-139.09 24.02,-141.13"/>
<text text-anchor="middle" x="22.5" y="-152.8" font-family="Times,serif" font-size="14.00">c</text>
</g>
<!-- 1&#45;&gt;2 -->
<g id="edge4" class="edge">
<title>1&#45;&gt;2</title>
<path fill="none" stroke="black" d="M31,-181.8C31,-170.16 31,-154.55 31,-141.24"/>
<polygon fill="black" stroke="black" points="34.5,-141.18 31,-131.18 27.5,-141.18 34.5,-141.18"/>
<text text-anchor="middle" x="34.5" y="-152.8" font-family="Times,serif" font-size="14.00">b</text>
</g>
<!-- 0 -->
<g id="node4" class="node">
<title>0</title>
<ellipse fill="none" stroke="black" cx="31" cy="-287" rx="27" ry="18"/>
<text text-anchor="middle" x="31" y="-283.3" font-family="Times,serif" font-size="14.00">0</text>
</g>
<!-- 0&#45;&gt;1 -->
<g id="edge5" class="edge">
<title>0&#45;&gt;1</title>
<path fill="none" stroke="black" d="M31,-268.8C31,-257.16 31,-241.55 31,-228.24"/>
<polygon fill="black" stroke="black" points="34.5,-228.18 31,-218.18 27.5,-228.18 34.5,-228.18"/>
<text text-anchor="middle" x="34.5" y="-239.8" font-family="Times,serif" font-size="14.00">a</text>
</g>
</g>
</svg>
